<svg width="339" height="197" viewBox="0 0 339 197" fill="none" xmlns="http://www.w3.org/2000/svg">
<path d="M154.649 72.5511C131.457 84.2233 114.95 100.094 113.559 127.103C113.09 136.196 117.751 148.198 127.494 137.122C136.545 126.832 132.843 106.671 122.264 98.5476C106.39 86.357 86.7979 96.7136 74.2855 109.177C54.9273 128.458 37.2029 149.414 23.834 173.233C21.1108 178.084 54.0176 165.898 42.2885 168.633C34.0098 170.564 27.6059 174.274 20.3466 178.504C15.1192 181.55 17.441 177.849 18.9589 173.482C21.4258 166.386 22.2959 156.741 20.1788 149.451" stroke="#1C1C1C" stroke-linecap="round"/>
<path d="M157.361 35.707C157.361 34.957 157.432 33.9375 157.572 32.6484C157.736 31.3594 157.971 29.9766 158.275 28.5C158.604 27.0234 159.002 25.5352 159.471 24.0352C159.939 22.5117 160.49 21.1406 161.123 19.9219C161.779 18.7031 162.518 17.707 163.338 16.9336C164.182 16.1602 165.107 15.7734 166.115 15.7734C166.701 15.7734 167.193 15.8789 167.592 16.0898C168.014 16.3008 168.354 16.5938 168.611 16.9688C168.893 17.3203 169.092 17.7305 169.209 18.1992C169.35 18.6445 169.42 19.1367 169.42 19.6758C168.998 19.6758 168.658 19.5703 168.4 19.3594C168.143 19.125 167.908 18.8789 167.697 18.6211C167.486 18.3633 167.264 18.1289 167.029 17.918C166.818 17.6836 166.525 17.5664 166.15 17.5664C165.4 17.5664 164.709 17.9297 164.076 18.6562C163.443 19.3594 162.869 20.2617 162.354 21.3633C161.838 22.4648 161.381 23.6953 160.982 25.0547C160.584 26.3906 160.244 27.7031 159.963 28.9922C159.705 30.2578 159.506 31.418 159.365 32.4727C159.225 33.5039 159.154 34.2773 159.154 34.793C159.154 35.4727 159.189 36.1406 159.26 36.7969C159.33 37.4297 159.482 38.0039 159.717 38.5195C159.951 39.0352 160.291 39.457 160.736 39.7852C161.182 40.0898 161.814 40.2422 162.635 40.2422C163.572 40.2422 164.498 39.9375 165.412 39.3281C166.35 38.7188 167.217 37.9805 168.014 37.1133C168.811 36.2227 169.502 35.2852 170.088 34.3008C170.674 33.293 171.096 32.4141 171.354 31.6641C171.4 31.6406 171.506 31.6289 171.67 31.6289C171.834 31.6055 171.939 31.5938 171.986 31.5938C172.268 31.5938 172.525 31.6289 172.76 31.6992C173.018 31.7461 173.146 31.957 173.146 32.332C173.006 33.082 172.678 33.8789 172.162 34.7227C171.646 35.543 171.037 36.3516 170.334 37.1484C169.631 37.9453 168.857 38.6836 168.014 39.3633C167.17 40.043 166.35 40.6172 165.553 41.0859C164.756 41.5547 164.018 41.8711 163.338 42.0352C162.658 42.2227 162.107 42.2109 161.686 42C160.912 42 160.244 41.7891 159.682 41.3672C159.143 40.9219 158.697 40.3828 158.346 39.75C158.018 39.1172 157.771 38.4375 157.607 37.7109C157.443 36.9844 157.361 36.3164 157.361 35.707ZM187.561 26.6367C186.693 26.3086 185.861 26.4375 185.064 27.0234C184.268 27.6094 183.506 28.4414 182.779 29.5195C182.053 30.5742 181.361 31.7812 180.705 33.1406C180.049 34.5 179.439 35.7891 178.877 37.0078C178.314 38.2266 177.799 39.2695 177.33 40.1367C176.885 41.0039 176.475 41.4844 176.1 41.5781C175.818 41.5781 175.596 41.5312 175.432 41.4375C175.291 41.3203 175.221 41.0508 175.221 40.6289V15.9141C175.221 15.7031 175.303 15.5742 175.467 15.5273C175.654 15.4805 175.854 15.4688 176.064 15.4922C176.275 15.5156 176.475 15.5742 176.662 15.668C176.85 15.7383 176.967 15.8203 177.014 15.9141L177.471 35.707C177.729 35.2852 177.963 34.6992 178.174 33.9492C178.408 33.1758 178.678 32.3555 178.982 31.4883C179.287 30.5977 179.639 29.7188 180.037 28.8516C180.459 27.9609 180.975 27.1641 181.584 26.4609C182.193 25.7578 182.932 25.2188 183.799 24.8438C184.689 24.4453 185.732 24.3047 186.928 24.4219C187.725 24.4219 188.369 24.6797 188.861 25.1953C189.354 25.6875 189.611 26.3438 189.635 27.1641L189.986 41.1914C189.986 41.2852 189.963 41.4258 189.916 41.6133C189.893 41.7773 189.799 41.918 189.635 42.0352C189.494 42.1758 189.283 42.2578 189.002 42.2812C188.744 42.3281 188.404 42.2695 187.982 42.1055L187.561 26.6367ZM192.764 34.4062C192.646 34.4297 192.471 34.4648 192.236 34.5117C192.002 34.5586 191.756 34.5703 191.498 34.5469C191.24 34.5234 191.018 34.4531 190.83 34.3359C190.619 34.2188 190.514 34.0195 190.514 33.7383C190.514 33.5742 190.549 33.457 190.619 33.3867C190.689 33.3164 190.807 33.2109 190.971 33.0703C191.486 32.6484 191.92 32.1094 192.271 31.4531C192.646 30.7734 192.986 30.0586 193.291 29.3086C193.596 28.5352 193.912 27.7734 194.24 27.0234C194.592 26.25 194.99 25.5586 195.436 24.9492C195.881 24.3398 196.432 23.8477 197.088 23.4727C197.744 23.0977 198.553 22.9219 199.514 22.9453C199.912 22.9453 200.357 23.0391 200.85 23.2266C201.342 23.4141 201.799 23.6719 202.221 24C202.643 24.3047 202.994 24.6797 203.275 25.125C203.557 25.5703 203.697 26.0625 203.697 26.6016C203.814 26.7891 203.697 27.0586 203.346 27.4102C203.018 27.7617 202.561 28.1484 201.975 28.5703C201.389 28.9688 200.721 29.3906 199.971 29.8359C199.244 30.2578 198.541 30.6562 197.861 31.0312C197.182 31.4062 196.584 31.7344 196.068 32.0156C195.553 32.2969 195.213 32.5078 195.049 32.6484C194.932 32.8828 194.838 33.1523 194.768 33.457C194.697 33.7617 194.639 34.0547 194.592 34.3359C194.568 34.5938 194.545 34.8398 194.521 35.0742C194.521 35.2852 194.521 35.4492 194.521 35.5664C194.521 36.0117 194.498 36.5039 194.451 37.043C194.428 37.582 194.451 38.0977 194.521 38.5898C194.615 39.0586 194.814 39.457 195.119 39.7852C195.424 40.0898 195.939 40.2422 196.666 40.2422C197.439 40.2422 198.166 40.0547 198.846 39.6797C199.525 39.2812 200.158 38.8008 200.744 38.2383C201.33 37.6758 201.857 37.0664 202.326 36.4102C202.818 35.7539 203.252 35.1445 203.627 34.582C204.025 33.9961 204.377 33.5156 204.682 33.1406C204.986 32.7656 205.244 32.5781 205.455 32.5781C205.689 32.5781 205.936 32.625 206.193 32.7188C206.475 32.7891 206.615 32.9766 206.615 33.2812C206.615 33.7031 206.439 34.207 206.088 34.793C205.76 35.3789 205.314 36 204.752 36.6562C204.213 37.3125 203.58 37.9688 202.854 38.625C202.15 39.2578 201.436 39.832 200.709 40.3477C199.982 40.8398 199.268 41.25 198.564 41.5781C197.861 41.8828 197.24 42.0352 196.701 42.0352C195.646 42.0352 194.85 41.7773 194.311 41.2617C193.771 40.7461 193.385 40.1016 193.15 39.3281C192.939 38.5547 192.822 37.7344 192.799 36.8672C192.799 35.9766 192.787 35.1562 192.764 34.4062ZM199.232 24.9141C198.834 24.9141 198.412 25.1133 197.967 25.5117C197.521 25.8867 197.1 26.3555 196.701 26.918C196.326 27.457 196.01 28.0195 195.752 28.6055C195.518 29.168 195.4 29.6367 195.4 30.0117C195.752 30.0117 196.256 29.8828 196.912 29.625C197.592 29.3438 198.26 29.0039 198.916 28.6055C199.572 28.207 200.146 27.7852 200.639 27.3398C201.131 26.8945 201.377 26.4727 201.377 26.0742C201.377 25.8633 201.295 25.6875 201.131 25.5469C200.967 25.4062 200.768 25.2891 200.533 25.1953C200.322 25.1016 200.1 25.0312 199.865 24.9844C199.631 24.9375 199.42 24.9141 199.232 24.9141ZM208.373 33.9141C208.443 33.0703 208.514 32.1562 208.584 31.1719C208.654 30.1641 208.76 29.168 208.9 28.1836C209.064 27.1992 209.264 26.2617 209.498 25.3711C209.756 24.4805 210.084 23.6953 210.482 23.0156C210.904 22.3125 211.42 21.7617 212.029 21.3633C212.639 20.9414 213.377 20.7422 214.244 20.7656C214.83 20.7656 215.275 21.0117 215.58 21.5039C215.908 21.9961 216.131 22.5938 216.248 23.2969C216.389 24 216.459 24.7266 216.459 25.4766C216.482 26.2031 216.494 26.8008 216.494 27.2695C216.025 27.2695 215.639 27.0703 215.334 26.6719C215.029 26.25 214.795 25.7695 214.631 25.2305C214.467 24.6914 214.35 24.1641 214.279 23.6484L214.174 22.6289C214.15 22.6289 214.104 22.6289 214.033 22.6289C213.986 22.6055 213.951 22.5938 213.928 22.5938C213.529 22.5938 213.154 22.8164 212.803 23.2617C212.475 23.707 212.158 24.2812 211.854 24.9844C211.572 25.6641 211.326 26.4375 211.115 27.3047C210.904 28.1484 210.729 28.9805 210.588 29.8008C210.447 30.6211 210.33 31.3828 210.236 32.0859C210.166 32.7656 210.131 33.293 210.131 33.668C210.084 34.2773 210.084 34.9453 210.131 35.6719C210.178 36.3984 210.318 37.0781 210.553 37.7109C210.787 38.3438 211.115 38.8945 211.537 39.3633C211.959 39.8086 212.521 40.1133 213.225 40.2773C214.092 40.2773 214.795 40.1602 215.334 39.9258C215.873 39.6914 216.307 39.375 216.635 38.9766C216.986 38.5781 217.256 38.1328 217.443 37.6406C217.631 37.1484 217.807 36.6445 217.971 36.1289C218.158 35.5898 218.346 35.0625 218.533 34.5469C218.721 34.0312 218.99 33.5508 219.342 33.1055C219.623 33.0352 219.822 33.0469 219.939 33.1406C220.08 33.2109 220.174 33.3164 220.221 33.457C220.268 33.5977 220.291 33.7617 220.291 33.9492V34.3359C220.291 35.3203 220.127 36.2695 219.799 37.1836C219.471 38.0977 218.99 38.918 218.357 39.6445C217.725 40.3477 216.963 40.9219 216.072 41.3672C215.205 41.7891 214.209 42 213.084 42C212.146 42 211.361 41.707 210.729 41.1211C210.119 40.5117 209.639 39.7852 209.287 38.9414C208.959 38.0977 208.725 37.2188 208.584 36.3047C208.443 35.3672 208.373 34.5703 208.373 33.9141ZM223.455 15C223.947 14.5312 224.334 14.3438 224.615 14.4375C224.92 14.5312 225.143 14.8477 225.283 15.3867C225.424 15.9258 225.506 16.6289 225.529 17.4961C225.553 18.3633 225.541 19.3477 225.494 20.4492C225.471 21.5273 225.412 22.6758 225.318 23.8945C225.225 25.0898 225.143 26.2734 225.072 27.4453C225.002 28.5938 224.955 29.6953 224.932 30.75C224.908 31.8047 224.943 32.7188 225.037 33.4922H225.143C225.189 33.4922 225.225 33.4805 225.248 33.457C226.467 32.2383 227.557 30.9492 228.518 29.5898C229.479 28.2305 230.346 26.9531 231.119 25.7578C231.893 24.5391 232.572 23.4844 233.158 22.5938C233.768 21.7031 234.33 21.0938 234.846 20.7656C235.197 20.7656 235.49 20.8242 235.725 20.9414C235.982 21.0586 236.111 21.3281 236.111 21.75C236.111 21.7969 236.1 21.8789 236.076 21.9961C236.076 22.0898 236.076 22.1602 236.076 22.207C235.49 23.4023 234.846 24.6094 234.143 25.8281C233.439 27.0234 232.678 28.1836 231.857 29.3086C231.037 30.4336 230.146 31.5 229.186 32.5078C228.248 33.5156 227.229 34.4297 226.127 35.25C226.127 35.2734 226.115 35.3203 226.092 35.3906C226.092 35.4375 226.092 35.4727 226.092 35.4961C226.092 35.7305 226.279 35.9883 226.654 36.2695C227.053 36.5508 227.545 36.8203 228.131 37.0781C228.74 37.3359 229.408 37.5938 230.135 37.8516C230.885 38.1094 231.611 38.332 232.314 38.5195C233.041 38.707 233.709 38.8594 234.318 38.9766C234.951 39.0938 235.443 39.1523 235.795 39.1523C235.795 39.2461 235.795 39.4219 235.795 39.6797C235.818 39.9375 235.807 40.207 235.76 40.4883C235.713 40.7695 235.631 41.0273 235.514 41.2617C235.396 41.4727 235.209 41.5781 234.951 41.5781H234.811C234.764 41.5781 234.729 41.5664 234.705 41.543L224.65 37.5C224.627 38.8828 224.533 40.0078 224.369 40.875C224.205 41.7188 224.006 42.3398 223.771 42.7383C223.561 43.1602 223.326 43.3594 223.068 43.3359C222.834 43.3125 222.623 43.125 222.436 42.7734L223.455 15ZM254.041 37.1836C253.877 36.1055 253.795 35.0625 253.795 34.0547C253.795 33.0234 253.854 31.9805 253.971 30.9258C254.111 29.8711 254.299 28.7812 254.533 27.6562C254.791 26.5078 255.084 25.2773 255.412 23.9648C255.412 23.707 255.482 23.4727 255.623 23.2617C255.764 23.0273 255.951 22.8398 256.186 22.6992C256.42 22.5352 256.666 22.4062 256.924 22.3125C257.182 22.2188 257.428 22.1719 257.662 22.1719C258.178 22.1719 258.646 22.3359 259.068 22.6641C259.49 22.9922 259.865 23.3906 260.193 23.8594C260.545 24.3281 260.838 24.832 261.072 25.3711C261.33 25.8867 261.541 26.332 261.705 26.707C261.893 27.5273 262.021 28.4648 262.092 29.5195C262.186 30.5508 262.197 31.6055 262.127 32.6836C262.057 33.7617 261.893 34.8281 261.635 35.8828C261.377 36.9141 261.014 37.8633 260.545 38.7305C260.076 39.5977 259.467 40.3242 258.717 40.9102C257.99 41.4961 257.123 41.8594 256.115 42C255.576 42 255.166 41.8242 254.885 41.4727C254.604 41.0977 254.393 40.6523 254.252 40.1367C254.135 39.5977 254.064 39.0586 254.041 38.5195C254.041 37.9805 254.041 37.5352 254.041 37.1836ZM255.834 37.0781C255.834 37.3125 255.834 37.5352 255.834 37.7461C255.857 37.957 255.881 38.168 255.904 38.3789C255.951 38.5664 255.998 38.7773 256.045 39.0117C256.115 39.2227 256.197 39.4688 256.291 39.75H256.502C257.064 39.75 257.545 39.5625 257.943 39.1875C258.342 38.8125 258.682 38.332 258.963 37.7461C259.244 37.1367 259.479 36.4688 259.666 35.7422C259.854 34.9922 259.994 34.2656 260.088 33.5625C260.205 32.8359 260.275 32.168 260.299 31.5586C260.346 30.9258 260.369 30.4219 260.369 30.0469V29.3438C260.369 29.0391 260.357 28.6992 260.334 28.3242C260.311 27.9258 260.264 27.5273 260.193 27.1289C260.146 26.707 260.064 26.332 259.947 26.0039C259.83 25.6523 259.678 25.3711 259.49 25.1602C259.303 24.9492 259.057 24.8438 258.752 24.8438C258.236 24.6797 257.791 24.7148 257.416 24.9492C257.064 25.1836 256.771 25.582 256.537 26.1445C256.326 26.6836 256.162 27.3516 256.045 28.1484C255.928 28.9453 255.857 29.8242 255.834 30.7852C255.811 31.7461 255.799 32.7656 255.799 33.8438C255.822 34.9219 255.834 36 255.834 37.0781ZM272.604 37.9219C272.51 38.2031 272.275 38.5898 271.9 39.082C271.549 39.5508 271.127 40.0312 270.635 40.5234C270.143 40.9922 269.627 41.4141 269.088 41.7891C268.572 42.1406 268.115 42.3164 267.717 42.3164C266.967 42.3164 266.346 41.9648 265.854 41.2617C265.385 40.5586 265.021 39.6562 264.764 38.5547C264.506 37.4531 264.33 36.2344 264.236 34.8984C264.143 33.5391 264.084 32.2148 264.061 30.9258C264.037 29.6367 264.025 28.4648 264.025 27.4102C264.025 26.3555 263.99 25.5586 263.92 25.0195C264.014 24.7852 264.131 24.6445 264.271 24.5977C264.436 24.5508 264.623 24.5273 264.834 24.5273C265.021 24.5273 265.186 24.5508 265.326 24.5977C265.49 24.6445 265.631 24.7852 265.748 25.0195C265.748 25.2773 265.748 25.7109 265.748 26.3203C265.771 26.9297 265.807 27.6211 265.854 28.3945C265.9 29.1445 265.947 29.9414 265.994 30.7852C266.041 31.6055 266.076 32.3906 266.1 33.1406C266.146 33.8906 266.182 34.5703 266.205 35.1797C266.252 35.7656 266.287 36.1992 266.311 36.4805C266.334 36.6445 266.357 36.9141 266.381 37.2891C266.428 37.6641 266.486 38.0625 266.557 38.4844C266.65 38.8828 266.756 39.2461 266.873 39.5742C267.014 39.9023 267.189 40.0781 267.4 40.1016C267.752 40.1016 268.104 39.9492 268.455 39.6445C268.83 39.3398 269.193 38.9531 269.545 38.4844C269.896 38.0156 270.225 37.5 270.529 36.9375C270.834 36.375 271.104 35.8359 271.338 35.3203C271.596 34.7812 271.783 34.3008 271.9 33.8789C272.041 33.457 272.123 33.1523 272.146 32.9648C272.193 32.5664 272.24 32.0039 272.287 31.2773C272.334 30.5273 272.369 29.7305 272.393 28.8867C272.416 28.043 272.428 27.2461 272.428 26.4961C272.451 25.7461 272.463 25.1719 272.463 24.7734L274.396 24.8789C274.42 26.7773 274.408 28.5 274.361 30.0469C274.314 31.5703 274.303 33.0117 274.326 34.3711C274.35 35.707 274.455 37.0078 274.643 38.2734C274.83 39.5391 275.17 40.8516 275.662 42.2109C275.592 42.2812 275.451 42.375 275.24 42.4922C275.029 42.6328 274.877 42.7031 274.783 42.7031C274.197 42.7031 273.799 42.5039 273.588 42.1055C273.4 41.7305 273.271 41.2852 273.201 40.7695C273.154 40.2305 273.107 39.7031 273.061 39.1875C273.037 38.6484 272.885 38.2266 272.604 37.9219ZM278.58 26.9883C278.346 27.1055 278.123 27.2344 277.912 27.375C277.725 27.4922 277.537 27.6094 277.35 27.7266C277.162 27.8203 276.975 27.8906 276.787 27.9375C276.6 27.9844 276.4 27.9844 276.189 27.9375C276.049 27.9375 275.932 27.8555 275.838 27.6914C275.744 27.5039 275.674 27.3047 275.627 27.0938C275.557 26.8594 275.51 26.6367 275.486 26.4258C275.463 26.1914 275.463 26.0156 275.486 25.8984L278.861 23.9648L279.072 14.9648C279.119 14.6602 279.307 14.543 279.635 14.6133C279.963 14.6602 280.303 14.7305 280.654 14.8242C280.701 14.8242 280.771 14.8477 280.865 14.8945C280.982 14.918 281.064 14.9414 281.111 14.9648C281.064 15.5977 281.006 16.2891 280.936 17.0391C280.889 17.7656 280.842 18.5039 280.795 19.2539C280.748 19.9805 280.713 20.6953 280.689 21.3984C280.689 22.1016 280.725 22.7344 280.795 23.2969L286.068 21.8203C286.162 21.7969 286.232 21.8672 286.279 22.0312C286.35 22.1719 286.408 22.3477 286.455 22.5586C286.525 22.7695 286.572 22.9805 286.596 23.1914C286.619 23.4023 286.631 23.5078 286.631 23.5078L280.654 26.0391C280.654 26.25 280.666 26.7539 280.689 27.5508C280.736 28.3477 280.783 29.2969 280.83 30.3984C280.877 31.4766 280.924 32.6484 280.971 33.9141C281.018 35.1562 281.064 36.3164 281.111 37.3945C281.158 38.4727 281.193 39.4219 281.217 40.2422C281.24 41.0391 281.252 41.543 281.252 41.7539C281.205 42.457 280.994 42.8086 280.619 42.8086C280.268 42.8086 279.881 42.6328 279.459 42.2812L278.58 26.9883ZM304.912 41.8945C304.842 41.2383 304.783 40.3477 304.736 39.2227C304.689 38.0977 304.643 36.8789 304.596 35.5664C304.549 34.2305 304.49 32.8477 304.42 31.418C304.373 29.9883 304.314 28.6289 304.244 27.3398C304.174 26.0508 304.08 24.8789 303.963 23.8242C303.869 22.7695 303.764 21.9258 303.646 21.293C303.646 20.8242 303.752 20.5547 303.963 20.4844C304.174 20.3906 304.443 20.3438 304.771 20.3438C304.818 20.3438 304.924 20.3438 305.088 20.3438C305.252 20.3438 305.369 20.3555 305.439 20.3789C305.65 21.082 305.779 21.9961 305.826 23.1211C305.896 24.2227 305.943 25.4297 305.967 26.7422C306.014 28.0547 306.049 29.4141 306.072 30.8203C306.119 32.2266 306.201 33.5625 306.318 34.8281C306.646 32.9766 306.916 31.4414 307.127 30.2227C307.361 29.0039 307.572 28.0312 307.76 27.3047C307.971 26.5547 308.158 26.0039 308.322 25.6523C308.51 25.2773 308.709 25.0312 308.92 24.9141C309.154 24.7969 309.4 24.75 309.658 24.7734C309.939 24.7734 310.268 24.7734 310.643 24.7734C311.064 24.7734 311.404 24.9375 311.662 25.2656C311.943 25.5938 312.154 26.0156 312.295 26.5312C312.459 27.0469 312.576 27.6094 312.646 28.2188C312.74 28.8281 312.822 29.4258 312.893 30.0117C312.963 30.5742 313.033 31.0898 313.104 31.5586C313.197 32.0273 313.338 32.3555 313.525 32.543C314.111 30.8086 314.615 29.3906 315.037 28.2891C315.459 27.1875 315.822 26.3203 316.127 25.6875C316.432 25.0312 316.701 24.5625 316.936 24.2812C317.17 24 317.381 23.8359 317.568 23.7891C317.756 23.7188 317.92 23.707 318.061 23.7539C318.225 23.8008 318.389 23.8242 318.553 23.8242C319.186 23.8242 319.666 24.1523 319.994 24.8086C320.369 25.8633 320.627 26.8711 320.768 27.832C320.908 28.7695 320.99 29.6836 321.014 30.5742C321.037 31.4414 321.037 32.2734 321.014 33.0703C321.014 33.8672 321.037 34.6406 321.084 35.3906C321.154 36.1406 321.283 36.8789 321.471 37.6055C321.682 38.332 322.033 39.0469 322.525 39.75C322.338 40.125 322.15 40.3828 321.963 40.5234C321.775 40.6406 321.518 40.6992 321.189 40.6992C320.908 40.6992 320.662 40.6055 320.451 40.418C320.24 40.207 320.064 39.9609 319.924 39.6797C319.783 39.375 319.666 39.0703 319.572 38.7656C319.502 38.4609 319.432 38.1914 319.361 37.957C319.268 34.6055 319.115 32.0391 318.904 30.2578C318.717 28.4531 318.424 27.5039 318.025 27.4102C317.627 27.3164 317.111 28.1016 316.479 29.7656C315.869 31.4062 315.107 33.9844 314.193 37.5C314.123 37.6172 314.018 37.6875 313.877 37.7109C313.736 37.7344 313.584 37.7461 313.42 37.7461C313.279 37.7461 313.127 37.7461 312.963 37.7461C312.822 37.7227 312.682 37.7227 312.541 37.7461C311.955 34.3008 311.463 31.8281 311.064 30.3281C310.689 28.8047 310.303 28.2188 309.904 28.5703C309.506 28.9219 309.061 30.1875 308.568 32.3672C308.076 34.5234 307.443 37.5586 306.67 41.4727L304.912 41.8945ZM333.389 41.8594L324.318 27.3398C324.295 27.3164 324.271 27.2344 324.248 27.0938C324.225 26.9297 324.213 26.8008 324.213 26.707C324.213 26.4023 324.26 26.1445 324.354 25.9336C324.471 25.6992 324.752 25.582 325.197 25.582C325.291 25.582 325.455 25.6406 325.689 25.7578C325.924 25.8516 326.064 25.9453 326.111 26.0391C326.627 26.8594 327.154 27.7734 327.693 28.7812C328.256 29.7891 328.83 30.7969 329.416 31.8047C330.025 32.8125 330.658 33.7852 331.314 34.7227C331.971 35.6367 332.662 36.4219 333.389 37.0781L334.232 23.2969C334.256 23.2969 334.314 23.2969 334.408 23.2969C334.525 23.2734 334.607 23.2617 334.654 23.2617C334.865 23.2617 335.076 23.2969 335.287 23.3672C335.498 23.4141 335.65 23.5664 335.744 23.8242C335.768 24.668 335.768 25.7109 335.744 26.9531C335.744 28.1953 335.721 29.4727 335.674 30.7852C335.65 32.0977 335.615 33.3633 335.568 34.582C335.545 35.7773 335.521 36.7383 335.498 37.4648C335.475 37.9336 335.428 38.6367 335.357 39.5742C335.311 40.5117 335.24 41.5664 335.146 42.7383C335.076 43.9336 334.982 45.1875 334.865 46.5C334.771 47.8125 334.678 49.0547 334.584 50.2266C334.49 51.3984 334.408 52.4531 334.338 53.3906C334.268 54.3516 334.209 55.043 334.162 55.4648H332.334L333.389 41.8594ZM165.131 83.0547V82.7734C165.131 82.5391 165.213 82.375 165.377 82.2812C165.564 82.1875 165.775 82.1406 166.01 82.1406C166.197 82.1406 166.373 82.1641 166.537 82.2109C166.701 82.2344 166.83 82.3633 166.924 82.5977C166.994 82.9492 167.064 83.4414 167.135 84.0742C167.205 84.6836 167.287 85.3633 167.381 86.1133C167.475 86.8633 167.568 87.6602 167.662 88.5039C167.779 89.3242 167.885 90.1094 167.979 90.8594C168.096 91.5859 168.213 92.2422 168.33 92.8281C168.447 93.4141 168.576 93.8594 168.717 94.1641C168.646 91.9141 168.717 89.9688 168.928 88.3281C169.139 86.6641 169.537 85.3164 170.123 84.2852C170.732 83.2305 171.553 82.5039 172.584 82.1055C173.639 81.6836 174.951 81.5898 176.521 81.8242C177.248 81.8242 177.611 82.2109 177.611 82.9844C177.611 83.2891 177.412 83.5 177.014 83.6172C176.615 83.7109 176.17 83.7812 175.678 83.8281C175.186 83.8516 174.705 83.8867 174.236 83.9336C173.768 83.9805 173.428 84.0977 173.217 84.2852C172.373 84.7539 171.775 85.4805 171.424 86.4648C171.096 87.4492 170.861 88.6094 170.721 89.9453C170.58 91.2812 170.475 92.7461 170.404 94.3398C170.357 95.9102 170.205 97.5273 169.947 99.1914C169.947 99.4258 169.854 99.6016 169.666 99.7188C169.479 99.8359 169.244 99.8945 168.963 99.8945C168.705 99.8945 168.447 99.8359 168.189 99.7188C167.955 99.6016 167.768 99.4258 167.627 99.1914L165.131 83.0547ZM180.424 92.4062C180.307 92.4297 180.131 92.4648 179.896 92.5117C179.662 92.5586 179.416 92.5703 179.158 92.5469C178.9 92.5234 178.678 92.4531 178.49 92.3359C178.279 92.2188 178.174 92.0195 178.174 91.7383C178.174 91.5742 178.209 91.457 178.279 91.3867C178.35 91.3164 178.467 91.2109 178.631 91.0703C179.146 90.6484 179.58 90.1094 179.932 89.4531C180.307 88.7734 180.646 88.0586 180.951 87.3086C181.256 86.5352 181.572 85.7734 181.9 85.0234C182.252 84.25 182.65 83.5586 183.096 82.9492C183.541 82.3398 184.092 81.8477 184.748 81.4727C185.404 81.0977 186.213 80.9219 187.174 80.9453C187.572 80.9453 188.018 81.0391 188.51 81.2266C189.002 81.4141 189.459 81.6719 189.881 82C190.303 82.3047 190.654 82.6797 190.936 83.125C191.217 83.5703 191.357 84.0625 191.357 84.6016C191.475 84.7891 191.357 85.0586 191.006 85.4102C190.678 85.7617 190.221 86.1484 189.635 86.5703C189.049 86.9688 188.381 87.3906 187.631 87.8359C186.904 88.2578 186.201 88.6562 185.521 89.0312C184.842 89.4062 184.244 89.7344 183.729 90.0156C183.213 90.2969 182.873 90.5078 182.709 90.6484C182.592 90.8828 182.498 91.1523 182.428 91.457C182.357 91.7617 182.299 92.0547 182.252 92.3359C182.229 92.5938 182.205 92.8398 182.182 93.0742C182.182 93.2852 182.182 93.4492 182.182 93.5664C182.182 94.0117 182.158 94.5039 182.111 95.043C182.088 95.582 182.111 96.0977 182.182 96.5898C182.275 97.0586 182.475 97.457 182.779 97.7852C183.084 98.0898 183.6 98.2422 184.326 98.2422C185.1 98.2422 185.826 98.0547 186.506 97.6797C187.186 97.2812 187.818 96.8008 188.404 96.2383C188.99 95.6758 189.518 95.0664 189.986 94.4102C190.479 93.7539 190.912 93.1445 191.287 92.582C191.686 91.9961 192.037 91.5156 192.342 91.1406C192.646 90.7656 192.904 90.5781 193.115 90.5781C193.35 90.5781 193.596 90.625 193.854 90.7188C194.135 90.7891 194.275 90.9766 194.275 91.2812C194.275 91.7031 194.1 92.207 193.748 92.793C193.42 93.3789 192.975 94 192.412 94.6562C191.873 95.3125 191.24 95.9688 190.514 96.625C189.811 97.2578 189.096 97.832 188.369 98.3477C187.643 98.8398 186.928 99.25 186.225 99.5781C185.521 99.8828 184.9 100.035 184.361 100.035C183.307 100.035 182.51 99.7773 181.971 99.2617C181.432 98.7461 181.045 98.1016 180.811 97.3281C180.6 96.5547 180.482 95.7344 180.459 94.8672C180.459 93.9766 180.447 93.1562 180.424 92.4062ZM186.893 82.9141C186.494 82.9141 186.072 83.1133 185.627 83.5117C185.182 83.8867 184.76 84.3555 184.361 84.918C183.986 85.457 183.67 86.0195 183.412 86.6055C183.178 87.168 183.061 87.6367 183.061 88.0117C183.412 88.0117 183.916 87.8828 184.572 87.625C185.252 87.3438 185.92 87.0039 186.576 86.6055C187.232 86.207 187.807 85.7852 188.299 85.3398C188.791 84.8945 189.037 84.4727 189.037 84.0742C189.037 83.8633 188.955 83.6875 188.791 83.5469C188.627 83.4062 188.428 83.2891 188.193 83.1953C187.982 83.1016 187.76 83.0312 187.525 82.9844C187.291 82.9375 187.08 82.9141 186.893 82.9141ZM196.033 91.9141C196.104 91.0703 196.174 90.1562 196.244 89.1719C196.314 88.1641 196.42 87.168 196.561 86.1836C196.725 85.1992 196.924 84.2617 197.158 83.3711C197.416 82.4805 197.744 81.6953 198.143 81.0156C198.564 80.3125 199.08 79.7617 199.689 79.3633C200.299 78.9414 201.037 78.7422 201.904 78.7656C202.49 78.7656 202.936 79.0117 203.24 79.5039C203.568 79.9961 203.791 80.5938 203.908 81.2969C204.049 82 204.119 82.7266 204.119 83.4766C204.143 84.2031 204.154 84.8008 204.154 85.2695C203.686 85.2695 203.299 85.0703 202.994 84.6719C202.689 84.25 202.455 83.7695 202.291 83.2305C202.127 82.6914 202.01 82.1641 201.939 81.6484L201.834 80.6289C201.811 80.6289 201.764 80.6289 201.693 80.6289C201.646 80.6055 201.611 80.5938 201.588 80.5938C201.189 80.5938 200.814 80.8164 200.463 81.2617C200.135 81.707 199.818 82.2812 199.514 82.9844C199.232 83.6641 198.986 84.4375 198.775 85.3047C198.564 86.1484 198.389 86.9805 198.248 87.8008C198.107 88.6211 197.99 89.3828 197.896 90.0859C197.826 90.7656 197.791 91.293 197.791 91.668C197.744 92.2773 197.744 92.9453 197.791 93.6719C197.838 94.3984 197.979 95.0781 198.213 95.7109C198.447 96.3438 198.775 96.8945 199.197 97.3633C199.619 97.8086 200.182 98.1133 200.885 98.2773C201.752 98.2773 202.455 98.1602 202.994 97.9258C203.533 97.6914 203.967 97.375 204.295 96.9766C204.646 96.5781 204.916 96.1328 205.104 95.6406C205.291 95.1484 205.467 94.6445 205.631 94.1289C205.818 93.5898 206.006 93.0625 206.193 92.5469C206.381 92.0312 206.65 91.5508 207.002 91.1055C207.283 91.0352 207.482 91.0469 207.6 91.1406C207.74 91.2109 207.834 91.3164 207.881 91.457C207.928 91.5977 207.951 91.7617 207.951 91.9492V92.3359C207.951 93.3203 207.787 94.2695 207.459 95.1836C207.131 96.0977 206.65 96.918 206.018 97.6445C205.385 98.3477 204.623 98.9219 203.732 99.3672C202.865 99.7891 201.869 100 200.744 100C199.807 100 199.021 99.707 198.389 99.1211C197.779 98.5117 197.299 97.7852 196.947 96.9414C196.619 96.0977 196.385 95.2188 196.244 94.3047C196.104 93.3672 196.033 92.5703 196.033 91.9141ZM211.115 92.4062C210.998 92.4297 210.822 92.4648 210.588 92.5117C210.354 92.5586 210.107 92.5703 209.85 92.5469C209.592 92.5234 209.369 92.4531 209.182 92.3359C208.971 92.2188 208.865 92.0195 208.865 91.7383C208.865 91.5742 208.9 91.457 208.971 91.3867C209.041 91.3164 209.158 91.2109 209.322 91.0703C209.838 90.6484 210.271 90.1094 210.623 89.4531C210.998 88.7734 211.338 88.0586 211.643 87.3086C211.947 86.5352 212.264 85.7734 212.592 85.0234C212.943 84.25 213.342 83.5586 213.787 82.9492C214.232 82.3398 214.783 81.8477 215.439 81.4727C216.096 81.0977 216.904 80.9219 217.865 80.9453C218.264 80.9453 218.709 81.0391 219.201 81.2266C219.693 81.4141 220.15 81.6719 220.572 82C220.994 82.3047 221.346 82.6797 221.627 83.125C221.908 83.5703 222.049 84.0625 222.049 84.6016C222.166 84.7891 222.049 85.0586 221.697 85.4102C221.369 85.7617 220.912 86.1484 220.326 86.5703C219.74 86.9688 219.072 87.3906 218.322 87.8359C217.596 88.2578 216.893 88.6562 216.213 89.0312C215.533 89.4062 214.936 89.7344 214.42 90.0156C213.904 90.2969 213.564 90.5078 213.4 90.6484C213.283 90.8828 213.189 91.1523 213.119 91.457C213.049 91.7617 212.99 92.0547 212.943 92.3359C212.92 92.5938 212.896 92.8398 212.873 93.0742C212.873 93.2852 212.873 93.4492 212.873 93.5664C212.873 94.0117 212.85 94.5039 212.803 95.043C212.779 95.582 212.803 96.0977 212.873 96.5898C212.967 97.0586 213.166 97.457 213.471 97.7852C213.775 98.0898 214.291 98.2422 215.018 98.2422C215.791 98.2422 216.518 98.0547 217.197 97.6797C217.877 97.2812 218.51 96.8008 219.096 96.2383C219.682 95.6758 220.209 95.0664 220.678 94.4102C221.17 93.7539 221.604 93.1445 221.979 92.582C222.377 91.9961 222.729 91.5156 223.033 91.1406C223.338 90.7656 223.596 90.5781 223.807 90.5781C224.041 90.5781 224.287 90.625 224.545 90.7188C224.826 90.7891 224.967 90.9766 224.967 91.2812C224.967 91.7031 224.791 92.207 224.439 92.793C224.111 93.3789 223.666 94 223.104 94.6562C222.564 95.3125 221.932 95.9688 221.205 96.625C220.502 97.2578 219.787 97.832 219.061 98.3477C218.334 98.8398 217.619 99.25 216.916 99.5781C216.213 99.8828 215.592 100.035 215.053 100.035C213.998 100.035 213.201 99.7773 212.662 99.2617C212.123 98.7461 211.736 98.1016 211.502 97.3281C211.291 96.5547 211.174 95.7344 211.15 94.8672C211.15 93.9766 211.139 93.1562 211.115 92.4062ZM217.584 82.9141C217.186 82.9141 216.764 83.1133 216.318 83.5117C215.873 83.8867 215.451 84.3555 215.053 84.918C214.678 85.457 214.361 86.0195 214.104 86.6055C213.869 87.168 213.752 87.6367 213.752 88.0117C214.104 88.0117 214.607 87.8828 215.264 87.625C215.943 87.3438 216.611 87.0039 217.268 86.6055C217.924 86.207 218.498 85.7852 218.99 85.3398C219.482 84.8945 219.729 84.4727 219.729 84.0742C219.729 83.8633 219.646 83.6875 219.482 83.5469C219.318 83.4062 219.119 83.2891 218.885 83.1953C218.674 83.1016 218.451 83.0312 218.217 82.9844C217.982 82.9375 217.771 82.9141 217.584 82.9141ZM228.201 99.543C227.943 96.3789 227.709 93.2148 227.498 90.0508C227.311 86.8633 227.1 83.5586 226.865 80.1367C226.865 79.5742 227.17 79.293 227.779 79.293H228.061C228.131 79.293 228.213 79.3867 228.307 79.5742C228.4 79.7617 228.494 80.1133 228.588 80.6289C228.705 81.1211 228.822 81.8828 228.939 82.9141C229.08 83.9219 229.244 85.2461 229.432 86.8867C229.619 88.5273 229.83 90.5781 230.064 93.0391C230.557 91.4453 230.943 89.8984 231.225 88.3984C231.506 86.8984 231.869 85.5391 232.314 84.3203C232.76 83.0781 233.381 81.9883 234.178 81.0508C234.998 80.1133 236.17 79.4219 237.693 78.9766C238.537 79.1172 239.217 79.6328 239.732 80.5234C240.248 81.3906 240.658 82.4688 240.963 83.7578C241.268 85.0469 241.479 86.4531 241.596 87.9766C241.713 89.4766 241.783 90.918 241.807 92.3008C241.83 93.6836 241.842 94.9258 241.842 96.0273C241.842 97.1055 241.865 97.8789 241.912 98.3477C241.842 98.5352 241.736 98.6992 241.596 98.8398C241.455 98.9805 241.291 99.0859 241.104 99.1562C240.939 99.2031 240.775 99.2148 240.611 99.1914C240.447 99.1445 240.295 99.0156 240.154 98.8047C240.154 98.5469 240.131 98.0195 240.084 97.2227C240.037 96.4258 239.979 95.5 239.908 94.4453C239.838 93.3672 239.756 92.2305 239.662 91.0352C239.592 89.8164 239.521 88.6797 239.451 87.625C239.404 86.5469 239.357 85.6094 239.311 84.8125C239.264 84.0156 239.229 83.4883 239.205 83.2305C238.713 82.3633 238.221 81.8711 237.729 81.7539C237.26 81.6367 236.779 81.7891 236.287 82.2109C235.818 82.6328 235.361 83.2773 234.916 84.1445C234.471 85.0117 234.049 85.9961 233.65 87.0977C233.252 88.1758 232.877 89.3125 232.525 90.5078C232.174 91.7031 231.869 92.8633 231.611 93.9883C231.354 95.0898 231.131 96.0977 230.943 97.0117C230.779 97.9023 230.674 98.5938 230.627 99.0859C230.557 99.25 230.404 99.4141 230.17 99.5781C229.959 99.7188 229.725 99.8242 229.467 99.8945C229.232 99.9648 228.986 99.9883 228.729 99.9648C228.494 99.918 228.318 99.7773 228.201 99.543ZM245.076 84.9883C244.842 85.1055 244.619 85.2344 244.408 85.375C244.221 85.4922 244.033 85.6094 243.846 85.7266C243.658 85.8203 243.471 85.8906 243.283 85.9375C243.096 85.9844 242.896 85.9844 242.686 85.9375C242.545 85.9375 242.428 85.8555 242.334 85.6914C242.24 85.5039 242.17 85.3047 242.123 85.0938C242.053 84.8594 242.006 84.6367 241.982 84.4258C241.959 84.1914 241.959 84.0156 241.982 83.8984L245.357 81.9648L245.568 72.9648C245.615 72.6602 245.803 72.543 246.131 72.6133C246.459 72.6602 246.799 72.7305 247.15 72.8242C247.197 72.8242 247.268 72.8477 247.361 72.8945C247.479 72.918 247.561 72.9414 247.607 72.9648C247.561 73.5977 247.502 74.2891 247.432 75.0391C247.385 75.7656 247.338 76.5039 247.291 77.2539C247.244 77.9805 247.209 78.6953 247.186 79.3984C247.186 80.1016 247.221 80.7344 247.291 81.2969L252.564 79.8203C252.658 79.7969 252.729 79.8672 252.775 80.0312C252.846 80.1719 252.904 80.3477 252.951 80.5586C253.021 80.7695 253.068 80.9805 253.092 81.1914C253.115 81.4023 253.127 81.5078 253.127 81.5078L247.15 84.0391C247.15 84.25 247.162 84.7539 247.186 85.5508C247.232 86.3477 247.279 87.2969 247.326 88.3984C247.373 89.4766 247.42 90.6484 247.467 91.9141C247.514 93.1562 247.561 94.3164 247.607 95.3945C247.654 96.4727 247.689 97.4219 247.713 98.2422C247.736 99.0391 247.748 99.543 247.748 99.7539C247.701 100.457 247.49 100.809 247.115 100.809C246.764 100.809 246.377 100.633 245.955 100.281L245.076 84.9883ZM275.979 99.0859C275.861 98.7344 275.662 98.1836 275.381 97.4336C275.1 96.6836 274.783 95.8398 274.432 94.9023C274.08 93.9648 273.705 92.9688 273.307 91.9141C272.908 90.8594 272.533 89.8633 272.182 88.9258C271.83 87.9883 271.514 87.1445 271.232 86.3945C270.951 85.6445 270.74 85.082 270.6 84.707C270.459 84.4961 270.33 84.2617 270.213 84.0039C270.119 83.7227 270.072 83.4531 270.072 83.1953C270.072 82.9141 270.131 82.668 270.248 82.457C270.365 82.2461 270.553 82.0938 270.811 82C271.068 82 271.291 82.0938 271.479 82.2812C271.689 82.4453 271.842 82.6445 271.936 82.8789L275.979 93.25C276.002 92.9219 276.061 92.3359 276.154 91.4922C276.248 90.625 276.342 89.7109 276.436 88.75C276.529 87.7891 276.611 86.8867 276.682 86.043C276.775 85.1758 276.846 84.5781 276.893 84.25C276.916 84.0156 276.939 83.7461 276.963 83.4414C276.986 83.1367 277.033 82.8438 277.104 82.5625C277.197 82.2812 277.326 82.0352 277.49 81.8242C277.678 81.6133 277.936 81.5078 278.264 81.5078C278.498 81.5078 278.662 81.5312 278.756 81.5781C278.873 81.625 279.002 81.7656 279.143 82L285.893 93.5312V81.6484C286.572 81.6484 287.041 81.8242 287.299 82.1758C287.58 82.5039 287.744 82.9141 287.791 83.4062C287.861 83.8984 287.861 84.4258 287.791 84.9883C287.721 85.5508 287.697 86.0547 287.721 86.5C287.721 86.6641 287.732 87.0156 287.756 87.5547C287.779 88.0938 287.803 88.7148 287.826 89.418C287.873 90.1211 287.908 90.8828 287.932 91.7031C287.955 92.5 287.979 93.25 288.002 93.9531C288.049 94.6562 288.084 95.2773 288.107 95.8164C288.131 96.3555 288.143 96.707 288.143 96.8711C288.307 97.3398 288.295 97.6562 288.107 97.8203C287.943 97.9609 287.709 98.0078 287.404 97.9609C287.1 97.9141 286.795 97.7852 286.49 97.5742C286.186 97.3633 285.986 97.1289 285.893 96.8711L278.721 84.707C278.557 88.2461 278.393 91.1992 278.229 93.5664C278.064 95.9336 277.912 97.9258 277.771 99.543C277.701 99.8008 277.584 99.9414 277.42 99.9648C277.256 99.9883 277.08 99.9648 276.893 99.8945C276.729 99.8008 276.564 99.6719 276.4 99.5078C276.236 99.3438 276.096 99.2031 275.979 99.0859ZM290.357 95.1836C290.193 94.1055 290.111 93.0625 290.111 92.0547C290.111 91.0234 290.17 89.9805 290.287 88.9258C290.428 87.8711 290.615 86.7812 290.85 85.6562C291.107 84.5078 291.4 83.2773 291.729 81.9648C291.729 81.707 291.799 81.4727 291.939 81.2617C292.08 81.0273 292.268 80.8398 292.502 80.6992C292.736 80.5352 292.982 80.4062 293.24 80.3125C293.498 80.2188 293.744 80.1719 293.979 80.1719C294.494 80.1719 294.963 80.3359 295.385 80.6641C295.807 80.9922 296.182 81.3906 296.51 81.8594C296.861 82.3281 297.154 82.832 297.389 83.3711C297.646 83.8867 297.857 84.332 298.021 84.707C298.209 85.5273 298.338 86.4648 298.408 87.5195C298.502 88.5508 298.514 89.6055 298.443 90.6836C298.373 91.7617 298.209 92.8281 297.951 93.8828C297.693 94.9141 297.33 95.8633 296.861 96.7305C296.393 97.5977 295.783 98.3242 295.033 98.9102C294.307 99.4961 293.439 99.8594 292.432 100C291.893 100 291.482 99.8242 291.201 99.4727C290.92 99.0977 290.709 98.6523 290.568 98.1367C290.451 97.5977 290.381 97.0586 290.357 96.5195C290.357 95.9805 290.357 95.5352 290.357 95.1836ZM292.15 95.0781C292.15 95.3125 292.15 95.5352 292.15 95.7461C292.174 95.957 292.197 96.168 292.221 96.3789C292.268 96.5664 292.314 96.7773 292.361 97.0117C292.432 97.2227 292.514 97.4688 292.607 97.75H292.818C293.381 97.75 293.861 97.5625 294.26 97.1875C294.658 96.8125 294.998 96.332 295.279 95.7461C295.561 95.1367 295.795 94.4688 295.982 93.7422C296.17 92.9922 296.311 92.2656 296.404 91.5625C296.521 90.8359 296.592 90.168 296.615 89.5586C296.662 88.9258 296.686 88.4219 296.686 88.0469V87.3438C296.686 87.0391 296.674 86.6992 296.65 86.3242C296.627 85.9258 296.58 85.5273 296.51 85.1289C296.463 84.707 296.381 84.332 296.264 84.0039C296.146 83.6523 295.994 83.3711 295.807 83.1602C295.619 82.9492 295.373 82.8438 295.068 82.8438C294.553 82.6797 294.107 82.7148 293.732 82.9492C293.381 83.1836 293.088 83.582 292.854 84.1445C292.643 84.6836 292.479 85.3516 292.361 86.1484C292.244 86.9453 292.174 87.8242 292.15 88.7852C292.127 89.7461 292.115 90.7656 292.115 91.8438C292.139 92.9219 292.15 94 292.15 95.0781ZM299.99 83.0547V82.7734C299.99 82.5391 300.072 82.375 300.236 82.2812C300.424 82.1875 300.635 82.1406 300.869 82.1406C301.057 82.1406 301.232 82.1641 301.396 82.2109C301.561 82.2344 301.689 82.3633 301.783 82.5977C301.854 82.9492 301.924 83.4414 301.994 84.0742C302.064 84.6836 302.146 85.3633 302.24 86.1133C302.334 86.8633 302.428 87.6602 302.521 88.5039C302.639 89.3242 302.744 90.1094 302.838 90.8594C302.955 91.5859 303.072 92.2422 303.189 92.8281C303.307 93.4141 303.436 93.8594 303.576 94.1641C303.506 91.9141 303.576 89.9688 303.787 88.3281C303.998 86.6641 304.396 85.3164 304.982 84.2852C305.592 83.2305 306.412 82.5039 307.443 82.1055C308.498 81.6836 309.811 81.5898 311.381 81.8242C312.107 81.8242 312.471 82.2109 312.471 82.9844C312.471 83.2891 312.271 83.5 311.873 83.6172C311.475 83.7109 311.029 83.7812 310.537 83.8281C310.045 83.8516 309.564 83.8867 309.096 83.9336C308.627 83.9805 308.287 84.0977 308.076 84.2852C307.232 84.7539 306.635 85.4805 306.283 86.4648C305.955 87.4492 305.721 88.6094 305.58 89.9453C305.439 91.2812 305.334 92.7461 305.264 94.3398C305.217 95.9102 305.064 97.5273 304.807 99.1914C304.807 99.4258 304.713 99.6016 304.525 99.7188C304.338 99.8359 304.104 99.8945 303.822 99.8945C303.564 99.8945 303.307 99.8359 303.049 99.7188C302.814 99.6016 302.627 99.4258 302.486 99.1914L299.99 83.0547ZM315.283 73C315.775 72.5312 316.162 72.3438 316.443 72.4375C316.748 72.5312 316.971 72.8477 317.111 73.3867C317.252 73.9258 317.334 74.6289 317.357 75.4961C317.381 76.3633 317.369 77.3477 317.322 78.4492C317.299 79.5273 317.24 80.6758 317.146 81.8945C317.053 83.0898 316.971 84.2734 316.9 85.4453C316.83 86.5938 316.783 87.6953 316.76 88.75C316.736 89.8047 316.771 90.7188 316.865 91.4922H316.971C317.018 91.4922 317.053 91.4805 317.076 91.457C318.295 90.2383 319.385 88.9492 320.346 87.5898C321.307 86.2305 322.174 84.9531 322.947 83.7578C323.721 82.5391 324.4 81.4844 324.986 80.5938C325.596 79.7031 326.158 79.0938 326.674 78.7656C327.025 78.7656 327.318 78.8242 327.553 78.9414C327.811 79.0586 327.939 79.3281 327.939 79.75C327.939 79.7969 327.928 79.8789 327.904 79.9961C327.904 80.0898 327.904 80.1602 327.904 80.207C327.318 81.4023 326.674 82.6094 325.971 83.8281C325.268 85.0234 324.506 86.1836 323.686 87.3086C322.865 88.4336 321.975 89.5 321.014 90.5078C320.076 91.5156 319.057 92.4297 317.955 93.25C317.955 93.2734 317.943 93.3203 317.92 93.3906C317.92 93.4375 317.92 93.4727 317.92 93.4961C317.92 93.7305 318.107 93.9883 318.482 94.2695C318.881 94.5508 319.373 94.8203 319.959 95.0781C320.568 95.3359 321.236 95.5938 321.963 95.8516C322.713 96.1094 323.439 96.332 324.143 96.5195C324.869 96.707 325.537 96.8594 326.146 96.9766C326.779 97.0938 327.271 97.1523 327.623 97.1523C327.623 97.2461 327.623 97.4219 327.623 97.6797C327.646 97.9375 327.635 98.207 327.588 98.4883C327.541 98.7695 327.459 99.0273 327.342 99.2617C327.225 99.4727 327.037 99.5781 326.779 99.5781H326.639C326.592 99.5781 326.557 99.5664 326.533 99.543L316.479 95.5C316.455 96.8828 316.361 98.0078 316.197 98.875C316.033 99.7188 315.834 100.34 315.6 100.738C315.389 101.16 315.154 101.359 314.896 101.336C314.662 101.312 314.451 101.125 314.264 100.773L315.283 73Z" fill="black"/>
</svg>
